<mxfile host="app.diagrams.net" modified="2023-08-17T02:06:25.759Z" agent="Mozilla/5.0 (X11; Linux x86_64) AppleWebKit/537.36 (KHTML, like Gecko) Chrome/110.0.0.0 Safari/537.36" etag="2Gf8beMC8VMIS2m9Ib8L" version="21.6.1" type="device">
  <diagram name="Page-1" id="7KPHd-ObQM6jm4_Uwnj-">
    <mxGraphModel dx="1426" dy="790" grid="1" gridSize="10" guides="1" tooltips="1" connect="1" arrows="1" fold="1" page="1" pageScale="1" pageWidth="850" pageHeight="1100" math="0" shadow="0">
      <root>
        <mxCell id="0" />
        <mxCell id="1" parent="0" />
        <mxCell id="WQmYhK-uvnRAoW6WglIA-1" value="Controle de acesso" style="shape=umlFrame;whiteSpace=wrap;html=1;pointerEvents=0;recursiveResize=0;container=1;collapsible=0;width=160;" vertex="1" parent="1">
          <mxGeometry x="10" y="20" width="830" height="420" as="geometry" />
        </mxCell>
        <mxCell id="WQmYhK-uvnRAoW6WglIA-2" style="edgeStyle=elbowEdgeStyle;rounded=0;orthogonalLoop=1;jettySize=auto;html=1;elbow=vertical;curved=0;" edge="1" parent="WQmYhK-uvnRAoW6WglIA-1" source="WQmYhK-uvnRAoW6WglIA-14">
          <mxGeometry relative="1" as="geometry">
            <mxPoint x="730" y="180" as="targetPoint" />
            <mxPoint x="610" y="205" as="sourcePoint" />
          </mxGeometry>
        </mxCell>
        <mxCell id="WQmYhK-uvnRAoW6WglIA-5" value="Ethereum blockchain" style="shape=umlLifeline;perimeter=lifelinePerimeter;whiteSpace=wrap;html=1;container=0;dropTarget=0;collapsible=0;recursiveResize=0;outlineConnect=0;portConstraint=eastwest;newEdgeStyle={&quot;edgeStyle&quot;:&quot;elbowEdgeStyle&quot;,&quot;elbow&quot;:&quot;vertical&quot;,&quot;curved&quot;:0,&quot;rounded&quot;:0};" vertex="1" parent="1">
          <mxGeometry x="697" y="60" width="100" height="370" as="geometry" />
        </mxCell>
        <mxCell id="WQmYhK-uvnRAoW6WglIA-6" value="" style="html=1;points=[];perimeter=orthogonalPerimeter;outlineConnect=0;targetShapes=umlLifeline;portConstraint=eastwest;newEdgeStyle={&quot;edgeStyle&quot;:&quot;elbowEdgeStyle&quot;,&quot;elbow&quot;:&quot;vertical&quot;,&quot;curved&quot;:0,&quot;rounded&quot;:0};" vertex="1" parent="WQmYhK-uvnRAoW6WglIA-5">
          <mxGeometry x="45" y="130" width="10" height="80" as="geometry" />
        </mxCell>
        <mxCell id="WQmYhK-uvnRAoW6WglIA-7" value="Front-end" style="shape=umlLifeline;perimeter=lifelinePerimeter;whiteSpace=wrap;html=1;container=0;dropTarget=0;collapsible=0;recursiveResize=0;outlineConnect=0;portConstraint=eastwest;newEdgeStyle={&quot;edgeStyle&quot;:&quot;elbowEdgeStyle&quot;,&quot;elbow&quot;:&quot;vertical&quot;,&quot;curved&quot;:0,&quot;rounded&quot;:0};" vertex="1" parent="1">
          <mxGeometry x="200" y="60" width="90" height="370" as="geometry" />
        </mxCell>
        <mxCell id="WQmYhK-uvnRAoW6WglIA-8" value="&lt;font style=&quot;font-size: 13px;&quot;&gt;&lt;br&gt;&lt;/font&gt;" style="html=1;verticalAlign=bottom;startArrow=oval;endArrow=block;startSize=8;edgeStyle=elbowEdgeStyle;elbow=vertical;curved=0;rounded=0;" edge="1" parent="WQmYhK-uvnRAoW6WglIA-7">
          <mxGeometry relative="1" as="geometry">
            <mxPoint x="-140" y="70" as="sourcePoint" />
            <mxPoint x="41" y="70" as="targetPoint" />
          </mxGeometry>
        </mxCell>
        <mxCell id="WQmYhK-uvnRAoW6WglIA-9" value="Paciente" style="edgeLabel;html=1;align=center;verticalAlign=middle;resizable=0;points=[];" vertex="1" connectable="0" parent="WQmYhK-uvnRAoW6WglIA-8">
          <mxGeometry x="-0.9892" y="-4" relative="1" as="geometry">
            <mxPoint x="40" y="-54" as="offset" />
          </mxGeometry>
        </mxCell>
        <mxCell id="WQmYhK-uvnRAoW6WglIA-10" value="&lt;span style=&quot;font-size: 13px;&quot;&gt;Remover acesso&lt;/span&gt;" style="edgeLabel;html=1;align=center;verticalAlign=middle;resizable=0;points=[];" vertex="1" connectable="0" parent="WQmYhK-uvnRAoW6WglIA-8">
          <mxGeometry x="-0.2284" y="1" relative="1" as="geometry">
            <mxPoint x="19" as="offset" />
          </mxGeometry>
        </mxCell>
        <mxCell id="WQmYhK-uvnRAoW6WglIA-11" value="" style="html=1;points=[];perimeter=orthogonalPerimeter;outlineConnect=0;targetShapes=umlLifeline;portConstraint=eastwest;newEdgeStyle={&quot;edgeStyle&quot;:&quot;elbowEdgeStyle&quot;,&quot;elbow&quot;:&quot;vertical&quot;,&quot;curved&quot;:0,&quot;rounded&quot;:0};" vertex="1" parent="WQmYhK-uvnRAoW6WglIA-7">
          <mxGeometry x="41" y="68" width="10" height="212" as="geometry" />
        </mxCell>
        <mxCell id="WQmYhK-uvnRAoW6WglIA-13" value="Metamask" style="shape=umlLifeline;perimeter=lifelinePerimeter;whiteSpace=wrap;html=1;container=0;dropTarget=0;collapsible=0;recursiveResize=0;outlineConnect=0;portConstraint=eastwest;newEdgeStyle={&quot;edgeStyle&quot;:&quot;elbowEdgeStyle&quot;,&quot;elbow&quot;:&quot;vertical&quot;,&quot;curved&quot;:0,&quot;rounded&quot;:0};" vertex="1" parent="1">
          <mxGeometry x="550" y="60" width="100" height="370" as="geometry" />
        </mxCell>
        <mxCell id="WQmYhK-uvnRAoW6WglIA-14" value="" style="html=1;points=[];perimeter=orthogonalPerimeter;outlineConnect=0;targetShapes=umlLifeline;portConstraint=eastwest;newEdgeStyle={&quot;edgeStyle&quot;:&quot;elbowEdgeStyle&quot;,&quot;elbow&quot;:&quot;vertical&quot;,&quot;curved&quot;:0,&quot;rounded&quot;:0};" vertex="1" parent="WQmYhK-uvnRAoW6WglIA-13">
          <mxGeometry x="45" y="110" width="10" height="40" as="geometry" />
        </mxCell>
        <mxCell id="WQmYhK-uvnRAoW6WglIA-15" style="edgeStyle=elbowEdgeStyle;rounded=0;orthogonalLoop=1;jettySize=auto;html=1;elbow=horizontal;curved=0;" edge="1" parent="1" source="WQmYhK-uvnRAoW6WglIA-6" target="WQmYhK-uvnRAoW6WglIA-11">
          <mxGeometry relative="1" as="geometry">
            <mxPoint x="730" y="370" as="sourcePoint" />
            <mxPoint x="290" y="260" as="targetPoint" />
            <Array as="points">
              <mxPoint x="360" y="260" />
            </Array>
          </mxGeometry>
        </mxCell>
        <mxCell id="WQmYhK-uvnRAoW6WglIA-16" value="&lt;font style=&quot;font-size: 13px;&quot;&gt;Retornar transação validada&lt;/font&gt;" style="edgeLabel;html=1;align=center;verticalAlign=middle;resizable=0;points=[];" vertex="1" connectable="0" parent="WQmYhK-uvnRAoW6WglIA-15">
          <mxGeometry x="-0.5301" y="1" relative="1" as="geometry">
            <mxPoint x="-139" as="offset" />
          </mxGeometry>
        </mxCell>
        <mxCell id="WQmYhK-uvnRAoW6WglIA-17" value="" style="shape=umlActor;verticalLabelPosition=bottom;verticalAlign=top;html=1;outlineConnect=0;" vertex="1" parent="1">
          <mxGeometry x="50" y="70" width="25" height="50" as="geometry" />
        </mxCell>
        <mxCell id="WQmYhK-uvnRAoW6WglIA-18" style="edgeStyle=elbowEdgeStyle;rounded=0;orthogonalLoop=1;jettySize=auto;html=1;elbow=vertical;curved=0;" edge="1" parent="1" source="WQmYhK-uvnRAoW6WglIA-11">
          <mxGeometry relative="1" as="geometry">
            <mxPoint x="276" y="177.2" as="sourcePoint" />
            <mxPoint x="595" y="177" as="targetPoint" />
          </mxGeometry>
        </mxCell>
        <mxCell id="WQmYhK-uvnRAoW6WglIA-19" value="&lt;font style=&quot;font-size: 13px;&quot;&gt;Enviar endereço para remover da lista de&amp;nbsp;&lt;br&gt;endereços autorizados&lt;br&gt;solicitar transação:&amp;nbsp;&lt;i&gt;removePermission( )&lt;/i&gt;&lt;/font&gt;" style="edgeLabel;html=1;align=center;verticalAlign=middle;resizable=0;points=[];" vertex="1" connectable="0" parent="WQmYhK-uvnRAoW6WglIA-18">
          <mxGeometry x="-0.4462" relative="1" as="geometry">
            <mxPoint x="71" y="-1" as="offset" />
          </mxGeometry>
        </mxCell>
        <mxCell id="WQmYhK-uvnRAoW6WglIA-20" value="" style="endArrow=classic;html=1;rounded=0;" edge="1" parent="1" target="WQmYhK-uvnRAoW6WglIA-11">
          <mxGeometry width="50" height="50" relative="1" as="geometry">
            <mxPoint x="251" y="284" as="sourcePoint" />
            <mxPoint x="361" y="284" as="targetPoint" />
            <Array as="points">
              <mxPoint x="360" y="284" />
              <mxPoint x="360" y="320" />
              <mxPoint x="360" y="330" />
              <mxPoint x="300" y="330" />
            </Array>
          </mxGeometry>
        </mxCell>
        <mxCell id="WQmYhK-uvnRAoW6WglIA-21" value="&lt;font style=&quot;font-size: 13px;&quot;&gt;Atualizar tabela de&amp;nbsp;&lt;br&gt;endereços autorizados&amp;nbsp;&lt;/font&gt;" style="edgeLabel;html=1;align=center;verticalAlign=middle;resizable=0;points=[];" vertex="1" connectable="0" parent="WQmYhK-uvnRAoW6WglIA-20">
          <mxGeometry x="0.01" relative="1" as="geometry">
            <mxPoint y="-2" as="offset" />
          </mxGeometry>
        </mxCell>
      </root>
    </mxGraphModel>
  </diagram>
</mxfile>
